<svg viewBox="0 0 370.00000000000006 77.81184194404157" className="logo-default" fill="none"
    xmlns="http://www.w3.org/2000/svg">
    <defs id="SvgjsDefs1001"></defs>
    <g id="icon-svg-logo" featurekey="symbolFeature-0" transform="matrix(1.3072129344415984,0,0,1.3072129344415984,-17.329417648081293,-14.379342278857582)" fill="#58d5d3">
        <g xmlns="http://www.w3.org/2000/svg">
            <defs>
                <rect id="a" width="80" height="80"></rect>
            </defs>
            <clipPath id="b">
                <use xmlns:xlink="http://www.w3.org/1999/xlink" xlink:href="#a" style="" overflow="visible">
                </use>
            </clipPath>
            <path d="M64,11H16c-1.7,0-3,1.4-2.7,3.1l6.4,44.1c0.2,1.4,1.3,3,2.6,3.6L37.8,70c1.3,0.7,3.2,0.7,4.5,0l15.5-8.1   c1.3-0.7,2.4-2.2,2.6-3.6l6.4-44.1C66.9,12.4,65.7,11,64,11 M58.3,57.9c-0.1,0.8-0.8,1.8-1.5,2.2l-15.5,8.1c-0.7,0.4-1.9,0.4-2.6,0   L23.2,60c-0.7-0.4-1.4-1.4-1.5-2.2l-6.4-44.1C15.2,13.3,15.5,13,16,13h48c0.5,0,0.8,0.4,0.7,0.8L58.3,57.9z" style="clip-path: url(#b);"></path>
            <path d="M32.7,28.3c-0.4-0.4-1-0.4-1.4,0l-8,8c-0.4,0.4-0.4,1,0,1.4l8,8c0.4,0.4,1,0.4,1.4,0c0.4-0.4,0.4-1,0-1.4   L25.4,37l7.3-7.3C33.1,29.3,33.1,28.7,32.7,28.3" style="clip-path: url(#b);"></path>
            <path d="M48.7,28.3c-0.4-0.4-1-0.4-1.4,0c-0.4,0.4-0.4,1,0,1.4l7.3,7.3l-7.3,7.3c-0.4,0.4-0.4,1,0,1.4   c0.4,0.4,1,0.4,1.4,0l8-8c0.4-0.4,0.4-1,0-1.4L48.7,28.3z" style="clip-path: url(#b);"></path>
            <path d="M45.4,26.1c-0.5-0.2-1.1,0-1.3,0.4l-10,20c-0.2,0.5,0,1.1,0.4,1.3c0.5,0.2,1.1,0,1.3-0.4l10-20   C46.1,27,45.9,26.4,45.4,26.1" style="clip-path: url(#b);"></path>
        </g>
    </g>
    <g id="name-svg-logo" featurekey="nameFeature-0" transform="matrix(0.7952828620280831,0,0,0.7952828620280831,90,18.48842073201069)" fill="#58d5d3">
        <path d="M21.16 11.96 l9.2 0 l0 13.4 l-0.04 0 c-0.32 8.16 -6.92 14.64 -15.16 14.64 c-8.32 0 -15.16 -6.84 -15.16 -15.16 l0 -3.6 l13.32 0 l0 3.04 l-10.2 0 l0 0.56 c0 6.64 5.4 12.04 12.04 12.04 c6.6 0 11.92 -5.28 12.04 -11.84 l0 -10 l-3 0 l0 9.88 c0 4.96 -4.12 8.96 -9.04 8.96 c-4.16 0 -7.6 -2.84 -8.68 -6.56 l3.24 0 c0.92 2.08 3 3.52 5.44 3.52 c3.32 0 6 -2.68 6 -6 l0 -12.88 z M67.644 11.96 l0 9.36 l-21.24 0 l0 3.12 l15.76 0 l0 3.12 l-18.88 0 l0 -9.36 l21.24 0 l0 -3.12 l-24.36 0 l0 21.8 l24.36 0 l0 -3.12 l-21.24 0 l0 -3.12 l24.36 0 l0 9.36 l-30.6 0 l0 -28.04 l30.6 0 z M104.928 11.96 l0 9.36 l-21.24 0 l0 3.12 l15.76 0 l0 3.12 l-18.88 0 l0 -9.36 l21.24 0 l0 -3.12 l-24.36 0 l0 21.8 l3.12 0 l0 -6.24 l3.12 0 l0 9.36 l-9.36 0 l0 -28.04 l30.6 0 z M110.012 21.32 l0 -9.36 l30.6 0 l0 9.36 l-7.52 0 l0 -3.12 l4.4 0 l0 -3.12 l-24.36 0 l0 3.12 l10.64 0 l-0.04 18.68 l3.12 0 l0 -18.68 l3.12 0 l0 21.8 l-9.36 0 l0 -18.68 l-10.6 0 z M177.896 11.96 l0 9.36 l-21.24 0 l0 3.12 l15.76 0 l0 3.12 l-18.88 0 l0 -9.36 l21.24 0 l0 -3.12 l-24.36 0 l0 21.8 l24.36 0 l0 -3.12 l-21.24 0 l0 -3.12 l24.36 0 l0 9.36 l-30.6 0 l0 -28.04 l30.6 0 z M215.33999999999997 40 l-10.8 0 l-3.64 -6.28 l-7 0 l0 6.28 l-9.32 0 l0 -15.6 l22.88 0.04 c2.6 0 4.68 -2.12 4.68 -4.68 c0 -2.6 -2.08 -4.68 -4.68 -4.68 l-19.76 0 l0 3.12 l19.76 0 c0.84 0.04 1.48 0.72 1.48 1.56 s-0.64 1.52 -1.48 1.56 l-0.04 0 l-0.04 0 l-22.8 0 l0 -9.36 l22.88 0 c4.32 0 7.8 3.48 7.8 7.8 c0 4.28 -3.48 7.8 -7.8 7.8 l-19.76 -0.04 l0 9.36 l3.12 0 l0 -6.28 l11.88 0 c1.28 2.32 3.44 5.88 3.64 6.28 l3.6 0 c-0.32 -0.44 -2.16 -3.72 -3.64 -6.28 l3.6 0 c1.32 2.28 2.64 4.64 3.72 6.4 z M243.108 11.96 l17.2 0 c7.48 0.32 13.4 6.48 13.4 14 c0 7.56 -5.92 13.72 -13.4 14.04 l-17.2 0 l0 -21.8 l17.2 0 c4.04 0.32 7.24 3.64 7.24 7.8 c0 4 -3.08 7.44 -7.08 7.76 l-11.12 0 l0 -9.84 l3.12 0 l0 6.72 l7.84 -0.04 c2.36 -0.2 4.16 -2.24 4.16 -4.6 c0 -2.04 -1.28 -3.72 -3.08 -4.4 c-0.68 -0.28 -1.08 -0.28 -2.16 -0.28 l-13 0 l0 15.56 l14.08 0 c5.72 -0.32 10.28 -5.04 10.28 -10.92 c0 -5.8 -4.56 -10.56 -10.28 -10.88 l-17.2 0 l0 -3.12 z M309.39200000000005 11.96 l0 9.36 l-21.24 0 l0 3.12 l15.76 0 l0 3.12 l-18.88 0 l0 -9.36 l21.24 0 l0 -3.12 l-24.36 0 l0 21.8 l24.36 0 l0 -3.12 l-21.24 0 l0 -3.12 l24.36 0 l0 9.36 l-30.6 0 l0 -28.04 l30.6 0 z M341.276 11.96 l10.8 0 c-0.6 1 -4.64 8.04 -8.52 14.8 c-2.28 3.96 -4.8 8.4 -7.64 13.24 l-3.6 0 c0.32 -0.52 3.88 -6.8 7.4 -12.88 c2.04 -3.56 4.36 -7.6 6.96 -12.04 l-3.6 0 c-5.04 8.64 -7.96 13.8 -12.56 21.8 c-0.28 -0.48 -14.48 -24.88 -14.44 -24.92 l10.8 0 l5.44 9.36 l-1.8 3.12 l-5.44 -9.36 l-3.6 0 c0.8 1.28 8.28 14.32 9.04 15.56 l7.84 -13.6 z">
        </path>
    </g>
</svg>